<svg width="267" height="71" viewBox="0 0 267 71" fill="none" xmlns="http://www.w3.org/2000/svg">
<path d="M83.5414 37.9619C84.7763 36.5136 86.2952 35.3302 88.0054 34.4839C89.7822 33.6243 91.7369 33.1903 93.713 33.2168C97.0355 33.2168 99.7841 33.92 101.863 35.2948C104.089 36.8548 105.765 39.0712 106.652 41.63L106.71 41.7757H111.977L111.882 41.4716C111.33 39.7318 110.54 38.0755 109.535 36.5492C108.53 35.0361 107.26 33.7143 105.785 32.6467C104.19 31.5172 102.416 30.6607 100.537 30.1126C98.3345 29.4498 96.0458 29.1147 93.7449 29.1179C91.8444 29.1049 89.952 29.3652 88.1266 29.8908C84.8258 30.8369 81.8697 32.7088 79.6131 35.2821C78.5282 36.5291 77.6048 37.9061 76.8645 39.381C76.1131 40.8754 75.5436 42.4534 75.1682 44.0817C74.7861 45.7294 74.5935 47.4148 74.5942 49.1056C74.5538 52.1175 75.0193 55.1151 75.9717 57.9749C76.7786 60.4295 78.0805 62.695 79.798 64.6332C81.4854 66.4407 83.5572 67.8518 85.8627 68.7638C88.3734 69.7371 91.05 70.219 93.7449 70.1828C96.0711 70.2153 98.3843 69.8334 100.575 69.0552C104.448 67.6904 107.688 64.9696 109.688 61.4022C110.672 59.6413 111.381 57.7424 111.792 55.7702L111.85 55.4851H106.748L106.71 55.6689C106.396 57.0209 105.896 58.3235 105.224 59.5397C104.522 60.7951 103.617 61.9273 102.545 62.891C100.129 65.0365 96.9853 66.1952 93.7449 66.1346C91.9676 66.1287 90.2086 65.7779 88.5666 65.102C86.8421 64.4045 85.2907 63.3431 84.0197 61.9914C82.6018 60.4581 81.501 58.6629 80.7801 56.7078C79.9066 54.2889 79.4851 51.7319 79.5365 49.1626C79.5307 47.0777 79.8867 45.0075 80.5888 43.0428C81.2457 41.1931 82.233 39.4763 83.5031 37.9746" fill="#FCA126"/>
<path d="M137.817 44.8293C136.577 43.4656 135.054 42.385 133.353 41.6617C131.448 40.8773 129.401 40.4892 127.34 40.5213C125.286 40.4856 123.246 40.8739 121.351 41.6617C119.673 42.3913 118.172 43.4717 116.951 44.8293C115.745 46.1818 114.819 47.7578 114.228 49.4667C112.991 53.1208 112.991 57.0766 114.228 60.7307C114.813 62.4265 115.735 63.9884 116.938 65.3237C118.168 66.6544 119.667 67.7104 121.339 68.4217C125.191 69.9503 129.488 69.9503 133.34 68.4217C135.034 67.7182 136.557 66.6618 137.804 65.3237C139.021 63.9898 139.957 62.4284 140.559 60.7307C141.816 57.0776 141.816 53.1135 140.559 49.4603C139.96 47.7531 139.028 46.1796 137.817 44.8293ZM127.359 65.4885C126.092 65.5099 124.837 65.2484 123.685 64.7231C122.534 64.1979 121.516 63.4224 120.707 62.4539C119.893 61.478 119.276 60.3551 118.89 59.1469C118.054 56.4968 118.054 53.6563 118.89 51.0061C119.283 49.801 119.899 48.6795 120.707 47.6992C121.515 46.7229 122.53 45.9365 123.68 45.3966C124.83 44.8567 126.087 44.5766 127.359 44.5766C128.631 44.5766 129.887 44.8567 131.037 45.3966C132.187 45.9365 133.202 46.7229 134.01 47.6992C134.819 48.6795 135.438 49.801 135.834 51.0061C136.689 53.6511 136.689 56.4956 135.834 59.1406C135.439 60.3506 134.815 61.475 133.997 62.4539C133.188 63.4224 132.17 64.1979 131.019 64.7231C129.868 65.2484 128.613 65.5099 127.346 65.4885" fill="#FCA126"/>
<path d="M166.03 42.821C165.173 42.0599 164.165 41.4859 163.071 41.1358C161.809 40.7303 160.488 40.5334 159.162 40.553C157.195 40.5527 155.246 40.9291 153.422 41.6617C151.628 42.4043 150.002 43.4964 148.639 44.8736V41.0408H143.646V69.0868H148.639V52.2732C148.641 51.2851 148.893 50.3133 149.373 49.4477C149.885 48.5036 150.58 47.6702 151.42 46.9959C153.359 45.4438 155.779 44.6066 158.269 44.6265C159.03 44.6193 159.788 44.7087 160.526 44.8926C161.136 45.0377 161.704 45.3219 162.184 45.7225C162.666 46.1227 163.035 46.64 163.256 47.224C163.505 47.9627 163.626 48.7383 163.613 49.5173V69.0678H168.542V49.0549C168.555 47.8431 168.338 46.6398 167.905 45.5071C167.5 44.4831 166.865 43.5644 166.049 42.821" fill="#FCA126"/>
<path d="M193.044 42.821C192.188 42.0624 191.182 41.4886 190.091 41.1359C188.825 40.7306 187.5 40.5337 186.169 40.553C184.217 40.5604 182.285 40.9367 180.474 41.6617C178.679 42.4063 177.051 43.4981 175.685 44.8736V41.0408H170.698V69.0869H175.685V52.2732C175.693 51.2859 175.945 50.3157 176.419 49.4477C176.933 48.5033 177.631 47.67 178.472 46.9959C179.394 46.2575 180.433 45.6752 181.546 45.2728C182.757 44.8417 184.035 44.6272 185.321 44.6392C186.08 44.6325 186.836 44.722 187.572 44.9053C188.184 45.0517 188.753 45.3356 189.237 45.7352C189.697 46.144 190.047 46.6599 190.257 47.2367C190.512 47.974 190.633 48.7506 190.614 49.53V69.0805H195.544V49.0549C195.556 47.8431 195.34 46.6398 194.906 45.5072C194.499 44.4841 193.865 43.5658 193.05 42.821" fill="#FCA126"/>
<path d="M221.231 44.4428C220.002 43.2035 218.527 42.2307 216.901 41.5856C215.097 40.8774 213.171 40.5266 211.232 40.553C209.22 40.5273 207.224 40.9155 205.371 41.6933C203.703 42.4068 202.197 43.4481 200.945 44.7546C199.692 46.061 198.718 47.6057 198.082 49.2956C197.426 51.0114 197.093 52.8324 197.1 54.6679C197.089 56.6125 197.429 58.5433 198.101 60.3696C198.732 62.1232 199.695 63.7404 200.939 65.1337C202.187 66.5143 203.706 67.6267 205.403 68.4026C207.253 69.2276 209.262 69.6405 211.289 69.6127C212.774 69.609 214.252 69.3957 215.677 68.9791C217.048 68.5775 218.351 67.9732 219.541 67.1863C220.706 66.4016 221.723 65.4195 222.545 64.2847C223.393 63.1096 223.998 61.7788 224.324 60.3696L224.394 60.0845H219.834L219.777 60.2302C218.4 63.8476 215.613 65.6088 211.295 65.6088C210.076 65.6154 208.872 65.3354 207.782 64.7916C206.704 64.25 205.738 63.5106 204.937 62.6122C204.118 61.6755 203.471 60.6034 203.024 59.4446C202.591 58.3555 202.349 57.2004 202.31 56.0299H224.936V54.2244C224.949 52.3743 224.625 50.5371 223.98 48.8015C223.377 47.1768 222.443 45.6931 221.237 44.4428H221.231ZM210.945 44.6265C212.196 44.6109 213.439 44.8257 214.612 45.2601C215.633 45.6404 216.57 46.2174 217.367 46.9579C218.126 47.6726 218.73 48.5353 219.139 49.492C219.527 50.4232 219.753 51.4127 219.809 52.4189H202.304C202.349 51.4562 202.583 50.5116 202.992 49.6377C203.435 48.6738 204.055 47.8013 204.823 47.0656C205.616 46.3126 206.541 45.7094 207.552 45.2854C208.627 44.8512 209.778 44.6358 210.938 44.6519" fill="#FCA126"/>
<path d="M247.339 59.1026C247.154 59.9814 246.856 60.8331 246.453 61.6367C246.065 62.4018 245.554 63.0993 244.941 63.7019C244.325 64.2987 243.6 64.7738 242.805 65.102C241.905 65.4583 240.942 65.6328 239.973 65.6152C238.732 65.6334 237.508 65.3159 236.434 64.6966C235.374 64.068 234.457 63.2265 233.743 62.2258C232.978 61.1542 232.402 59.9609 232.04 58.6971C231.646 57.3726 231.446 55.9985 231.447 54.6172C231.447 53.3275 231.648 52.0454 232.04 50.8161C232.406 49.6673 232.978 48.594 233.73 47.6485C234.466 46.7432 235.388 46.0044 236.434 45.4818C237.577 44.9276 238.836 44.6539 240.107 44.6836C240.984 44.6728 241.86 44.7643 242.716 44.956C243.449 45.1118 244.143 45.411 244.758 45.8363C245.374 46.2616 245.898 46.8044 246.3 47.4331C246.788 48.1753 247.17 48.9812 247.435 49.8278L247.486 49.9925H252.74L252.677 49.7074C252.377 48.434 251.892 47.2109 251.235 46.0773C250.587 44.958 249.732 43.9695 248.716 43.1631C247.61 42.3156 246.359 41.6719 245.024 41.2626C243.462 40.7811 241.832 40.5481 240.197 40.572C238.259 40.5543 236.338 40.9317 234.553 41.6807C232.918 42.3638 231.442 43.3729 230.216 44.6456C229.011 45.928 228.075 47.4354 227.461 49.0802C226.816 50.8465 226.492 52.7128 226.505 54.5919C226.505 55.8058 226.62 57.017 226.849 58.2093C227.082 59.4041 227.432 60.5732 227.895 61.7C228.359 62.8223 228.957 63.8857 229.674 64.8676C230.39 65.836 231.25 66.6905 232.225 67.4017C233.249 68.1348 234.381 68.7074 235.579 69.0995C236.932 69.528 238.344 69.7418 239.763 69.7331C241.444 69.7521 243.118 69.5106 244.724 69.0172C246.144 68.5749 247.465 67.8651 248.614 66.9266C249.722 66.0057 250.636 64.8778 251.306 63.6069C252.024 62.2207 252.49 60.7195 252.683 59.1722L252.715 58.9062H247.365L247.339 59.1026Z" fill="#FCA126"/>
<path d="M266.726 65.3997C266.356 65.4819 265.981 65.5391 265.603 65.5708C264.859 65.6543 264.106 65.6093 263.378 65.4378C263.021 65.3489 262.689 65.1847 262.402 64.9563C262.117 64.7196 261.897 64.4143 261.764 64.0694C261.589 63.6106 261.506 63.1218 261.522 62.6313V45.0067H266.247V41.0408H261.522V32.805L256.541 36.7075V41.0155H251.816V44.9813H256.541V64.0884C256.52 64.9602 256.694 65.826 257.052 66.6224C257.38 67.3031 257.868 67.8961 258.474 68.352C259.084 68.801 259.777 69.126 260.514 69.3086C261.296 69.5067 262.099 69.6047 262.906 69.6C263.587 69.5991 264.269 69.5631 264.947 69.4923C265.579 69.4277 266.206 69.3154 266.821 69.1565L267 69.1122V65.3111L266.726 65.3997Z" fill="#FCA126"/>
<path d="M24.3674 20.8948C24.906 21.3562 25.3123 21.9507 25.5452 22.6182C25.7781 23.2857 25.8294 24.0025 25.6939 24.696C25.5621 25.3892 25.2457 26.0347 24.7775 26.5652C24.3094 27.0957 23.7067 27.4919 23.0321 27.7125C22.3575 27.933 21.6358 27.97 20.942 27.8194C20.2482 27.6688 19.6077 27.3362 19.0871 26.8563C18.3195 26.1472 17.8607 25.1686 17.8083 24.1286C17.7559 23.0886 18.114 22.0693 18.8065 21.2876C19.4942 20.5077 20.4636 20.0285 21.5045 19.9538C22.5454 19.8791 23.5741 20.2149 24.3674 20.8885" fill="#FCA126"/>
<path d="M18.3536 18.2847L17.1292 19.1906C16.8167 18.8042 16.0259 17.9236 15.7198 17.5245L8.70495 8.43977C8.51363 8.19903 8.37971 8.12301 8.06723 8.23704C7.36065 8.49134 6.59383 8.53073 5.86462 8.35019C5.13541 8.16965 4.47689 7.77737 3.97308 7.22341C3.4619 6.66756 3.12839 5.97342 3.01486 5.22902C2.90133 4.48462 3.01288 3.7235 3.33536 3.04216C3.73701 2.13518 4.48309 1.42256 5.41115 1.05947C6.33921 0.696388 7.37408 0.712243 8.29043 1.10358C8.76164 1.29615 9.18939 1.58027 9.54858 1.93927C9.90777 2.29828 10.1912 2.72493 10.3821 3.19421C10.5777 3.66318 10.6784 4.16584 10.6784 4.67348C10.6784 5.18112 10.5777 5.68378 10.3821 6.15276C10.2801 6.39729 10.1426 6.62567 9.974 6.83062C9.76356 7.0967 9.81457 7.2931 10.0186 7.5465C12.5695 10.8472 15.6051 14.6293 18.1432 17.9173C18.2261 18.025 18.3026 18.139 18.4046 18.2847" fill="#FCA126"/>
<path d="M7.417 27.2554C10.7012 26.3368 11.83 25.8806 15.2418 24.9303C15.3885 25.4308 15.5224 25.9123 15.6691 26.4191C13.7113 26.9703 11.0775 27.7559 9.11333 28.3197C7.76137 28.6998 9.37479 28.3197 8.02283 28.7125C7.91231 28.7268 7.81156 28.7828 7.74151 28.8689C7.67145 28.955 7.63745 29.0646 7.64658 29.1749C7.63402 29.9159 7.39658 30.6359 6.96534 31.2407C6.5341 31.8454 5.92914 32.3067 5.22963 32.5643C4.53513 32.8624 3.7646 32.939 3.02441 32.7835C2.28421 32.6281 1.61083 32.2482 1.09722 31.6964C0.420803 31.0033 0.0299794 30.0839 0.0016545 29.1189C-0.0266704 28.154 0.309554 27.2135 0.944167 26.4825C1.54566 25.7938 2.37873 25.3459 3.28806 25.2224C4.1974 25.0988 5.12093 25.308 5.88648 25.8109C6.42571 26.2611 6.93683 26.7435 7.417 27.2554Z" fill="#FCA126"/>
<path d="M30.5028 8.93423C28.9595 11.8864 26.9507 15.8143 25.4011 18.7728L25.3182 18.8488L23.9917 18.1456C25.5286 15.1808 27.5438 11.2149 29.0934 8.19934C28.6144 7.76693 28.2472 7.22626 28.023 6.62306C27.7988 6.01987 27.7241 5.3719 27.8053 4.73397C27.891 3.92902 28.2483 3.17657 28.8192 2.599C29.4488 1.93323 30.2987 1.51494 31.2133 1.42071C32.1279 1.32647 33.0461 1.56259 33.7998 2.08585C34.5058 2.59863 35.0203 3.32979 35.2627 4.16454C35.5051 4.99929 35.4616 5.89037 35.139 6.69789C34.7774 7.57107 34.105 8.28156 33.25 8.69397C32.395 9.10639 31.4172 9.19191 30.5028 8.93423Z" fill="#FCA126"/>
<path d="M27.6264 23.3973C27.5308 22.8461 27.4224 22.3836 27.314 21.8768C29.2271 21.465 32.505 20.8632 34.45 20.445C34.4591 19.5047 34.8188 18.6011 35.4595 17.9089C36.1003 17.2166 36.9765 16.7849 37.919 16.6971C38.8615 16.6094 39.8032 16.8718 40.5623 17.4336C41.3214 17.9955 41.8439 18.8169 42.0288 19.7392C42.2137 20.6615 42.0479 21.6191 41.5634 22.427C41.079 23.2349 40.3103 23.8357 39.4059 24.1134C38.5015 24.391 37.5256 24.3258 36.6668 23.9302C35.808 23.5347 35.1272 22.8369 34.7561 21.9718C32.843 22.3836 29.5651 22.9791 27.6264 23.3973Z" fill="#FCA126"/>
<path d="M19.8081 30.8284L21.3259 31.1199C21.1856 31.8991 21.0517 32.6593 20.9114 33.4132C20.7392 34.3698 18.9408 43.1695 18.7431 44.1134C18.7105 44.2214 18.7176 44.3374 18.7631 44.4407C18.8087 44.544 18.8898 44.6279 18.9918 44.6772C19.6141 45.0342 20.1226 45.558 20.4592 46.1887C20.7957 46.8195 20.9467 47.5316 20.8948 48.2436C20.8429 48.9555 20.5902 49.6386 20.1657 50.2146C19.7412 50.7905 19.162 51.2361 18.4944 51.5003C17.8409 51.7743 17.1231 51.8601 16.4228 51.7481C15.7225 51.6361 15.0681 51.3307 14.5342 50.8667C13.9645 50.3818 13.5595 49.7338 13.3745 49.0115C13.1896 48.2891 13.2338 47.5277 13.5011 46.8312C13.7232 46.1209 14.1563 45.494 14.7436 45.0327C15.3308 44.5714 16.0448 44.2973 16.7917 44.2464C16.9062 44.2338 17.0217 44.2338 17.1361 44.2464C17.4741 42.3459 19.4382 32.7037 19.7826 30.8538" fill="#FCA126"/>
<path d="M62.2158 45.4565C60.9786 44.3753 59.2781 43.8326 57.1141 43.8283C55.5964 43.7974 54.0851 44.0333 52.6501 44.5252C51.4881 44.9229 50.4315 45.5762 49.5592 46.4362C48.6869 47.2962 48.0213 48.3408 47.6121 49.492C47.1816 50.6936 46.9658 51.9607 46.9744 53.2361V70.2019H64.0588V49.8658C64.099 49.0412 63.9546 48.218 63.6359 47.4555C63.3172 46.693 62.8322 46.0103 62.2158 45.4565Z" fill="#FCA126"/>
<path d="M24.8716 40.3313V70.2019H41.3566V40.1666H46.656V44.9307H46.7899C49.124 41.2858 52.8313 39.4634 57.9117 39.4634C59.8216 39.413 61.726 39.6872 63.5428 40.2743C64.9175 40.7389 66.1643 41.5155 67.1842 42.5423C68.1123 43.5174 68.7828 44.7059 69.1356 46.0013C69.5275 47.4469 69.7185 48.939 69.7031 50.436V70.1892H72.0627V28.6935H36.5801C33.4742 28.6952 30.4961 29.9221 28.3005 32.1044C26.1049 34.2867 24.8716 37.2459 24.8716 40.3313Z" fill="#FCA126"/>
<path opacity="0.55" d="M58.409 30.1696C58.409 30.1696 65.73 30.0492 65.73 37.8225C65.73 45.5959 48.0524 68.9158 29.6096 66.9646C29.6096 66.9646 26.0703 67.0216 26.0703 62.5933V41.8897C26.0703 41.8897 26.9249 30.2329 37.6704 30.1442C48.4159 30.0556 58.409 30.1696 58.409 30.1696Z" fill="url(#paint0_linear)"/>
<defs>
<linearGradient id="paint0_linear" x1="62.3692" y1="65.9002" x2="34.7736" y2="38.1219" gradientUnits="userSpaceOnUse">
<stop offset="0.13" stop-color="white"/>
<stop offset="0.22" stop-color="white" stop-opacity="0.98"/>
<stop offset="0.33" stop-color="white" stop-opacity="0.93"/>
<stop offset="0.44" stop-color="white" stop-opacity="0.84"/>
<stop offset="0.56" stop-color="white" stop-opacity="0.72"/>
<stop offset="0.68" stop-color="white" stop-opacity="0.56"/>
<stop offset="0.81" stop-color="white" stop-opacity="0.36"/>
<stop offset="0.93" stop-color="white" stop-opacity="0.13"/>
<stop offset="1" stop-color="white" stop-opacity="0"/>
</linearGradient>
</defs>
</svg>
