<svg width="94" height="24" viewBox="0 0 94 24" fill="none" xmlns="http://www.w3.org/2000/svg">
<path d="M8.10889 0.450251C10.2689 -0.160105 12.6002 -0.149916 14.7544 0.480817C17.6655 1.32115 20.2151 3.3196 21.7405 5.93618C22.9166 7.9293 23.4857 10.2703 23.3697 12.5812C23.2809 14.5059 22.7172 16.4064 21.7386 18.0666C20.8871 19.5188 19.726 20.788 18.3559 21.7661C16.3152 23.2343 13.8015 24.0246 11.2883 23.9994C12.8583 23.5419 14.3396 22.7743 15.603 21.7336C16.9227 20.6531 18.009 19.2888 18.7639 17.759C19.8211 15.632 20.2107 13.1862 19.89 10.8341C19.6445 8.99475 18.9599 7.21657 17.9105 5.68631C17.0415 4.4132 15.9246 3.31087 14.6418 2.45695C12.7205 1.17026 10.4198 0.470628 8.10889 0.450251Z" fill="#2F4F9B"/>
<path d="M44.6726 5.53737C45.6405 5.20842 46.6885 5.20017 47.6918 5.34621C48.9465 5.52912 50.1469 6.05506 51.1332 6.85172C50.6553 7.54504 50.1769 8.23836 49.6985 8.93169C48.914 8.39314 48.0523 7.92591 47.1067 7.7561C46.5842 7.66828 46.0277 7.65566 45.527 7.85022C45.2 7.97734 44.904 8.24564 44.838 8.60225C44.7914 8.90063 44.8215 9.23783 45.0238 9.47703C45.2097 9.69487 45.4746 9.82442 45.7351 9.93261C46.5944 10.2776 47.5118 10.4372 48.39 10.7249C49.111 10.9617 49.831 11.2572 50.4229 11.7438C50.9663 12.1824 51.3365 12.8223 51.4486 13.5113C51.5844 14.3657 51.5054 15.2759 51.1124 16.0556C50.8067 16.6674 50.3031 17.17 49.7102 17.5063C48.9227 17.9565 48.0092 18.1409 47.1096 18.1656C45.1005 18.2253 43.0725 17.5068 41.5742 16.1609C42.1171 15.5088 42.662 14.8582 43.2049 14.2061C43.8774 14.7577 44.6245 15.239 45.46 15.5005C46.1485 15.7145 46.8894 15.7955 47.6031 15.6718C48.0514 15.5908 48.5365 15.3608 48.7044 14.9062C48.8189 14.5554 48.7932 14.1183 48.522 13.8436C48.2775 13.5943 47.9466 13.4584 47.6268 13.3332C46.6972 12.9854 45.7123 12.8204 44.7779 12.4866C44.0331 12.2241 43.2791 11.8738 42.7605 11.2572C42.2734 10.6871 42.0866 9.92242 42.0778 9.18689C42.0512 8.42904 42.2365 7.65421 42.663 7.02153C43.1326 6.31075 43.8706 5.80519 44.6726 5.53737Z" fill="#2F4F9B"/>
<path d="M80.2769 17.9895C82.071 13.7737 83.8609 9.55656 85.6604 5.34326C86.508 5.34714 87.3551 5.34375 88.2027 5.3452C89.9969 9.55996 91.7907 13.7747 93.5839 17.99C92.6213 17.9895 91.6582 17.9904 90.6956 17.9895C90.3138 17.0506 89.931 16.1128 89.5482 15.1745C87.7787 15.1745 86.0093 15.1745 84.2398 15.1745C83.8565 16.1123 83.4742 17.0506 83.0919 17.989C82.1535 17.9904 81.2152 17.99 80.2769 17.9895ZM85.2267 12.7345C86.3382 12.7355 87.4498 12.735 88.5618 12.7345C88.0063 11.3774 87.4502 10.0204 86.8942 8.66383C86.3377 10.0204 85.7817 11.377 85.2267 12.7345Z" fill="#2F4F9B"/>
<path d="M29.1631 5.43548C30.0126 5.43548 30.8617 5.43451 31.7108 5.43597C33.6709 8.01227 35.6315 10.5886 37.5931 13.1649C37.5936 10.5881 37.5926 8.01179 37.5936 5.43548C38.5018 5.435 39.4101 5.435 40.3188 5.43548C40.3193 9.62016 40.3193 13.8048 40.3188 17.9895C39.5367 17.991 38.7546 17.9885 37.972 17.991C35.9425 15.3322 33.9178 12.6695 31.8898 10.0093C31.8883 12.6695 31.8898 15.3293 31.8888 17.9895C30.9806 17.99 30.0718 17.99 29.1631 17.9895C29.1631 13.8048 29.1631 9.62016 29.1631 5.43548Z" fill="#2F4F9B"/>
<path d="M53.0336 5.43545C54.5027 5.43496 55.9718 5.43545 57.4409 5.43496C57.9926 5.43739 58.5472 5.41798 59.0949 5.49755C60.0536 5.62515 61.0031 5.99583 61.7134 6.66683C62.3728 7.27913 62.7842 8.13013 62.9133 9.01607C63.0375 9.89522 62.9686 10.8195 62.6115 11.6399C62.3078 12.3468 61.7784 12.9475 61.1332 13.3628C60.2545 13.9329 59.2017 14.1813 58.1643 14.2182C57.375 14.2303 56.5851 14.2201 55.7962 14.2235C55.7952 15.4791 55.7962 16.7343 55.7957 17.99C54.8748 17.99 53.954 17.99 53.0336 17.9895C53.0331 13.8048 53.0331 9.62012 53.0336 5.43545ZM55.7957 7.92781C55.7957 9.20723 55.7957 10.4867 55.7962 11.7661C56.2498 11.7661 56.7035 11.7661 57.1576 11.7661C57.5802 11.7569 58.0057 11.7903 58.4263 11.7355C58.9833 11.6622 59.5369 11.392 59.8586 10.918C60.1778 10.4595 60.2331 9.86271 60.1182 9.32707C60.0328 8.92971 59.7989 8.56437 59.4622 8.33391C59.0314 8.03358 58.4943 7.93509 57.978 7.9283C57.2508 7.92684 56.523 7.9283 55.7957 7.92781Z" fill="#2F4F9B"/>
<path d="M64.2426 5.43548C65.1629 5.435 66.0833 5.435 67.0042 5.43548C67.0047 9.62016 67.0047 13.8048 67.0042 17.9895C66.0833 17.99 65.1629 17.99 64.2426 17.9895C64.2421 13.8048 64.2421 9.62016 64.2426 5.43548Z" fill="#2F4F9B"/>
<path d="M69.2823 5.43548C71.1906 5.435 73.0988 5.435 75.007 5.43548C75.9667 5.43597 76.9516 5.5922 77.8026 6.05603C78.4566 6.40924 79.0102 6.95749 79.3353 7.62898C79.7321 8.43583 79.819 9.36495 79.7176 10.2499C79.6244 11.0412 79.3042 11.8146 78.7594 12.4022C78.3009 12.9072 77.7022 13.2682 77.0666 13.5064C78.0874 15.0013 79.1111 16.4947 80.1319 17.9895C79.0563 17.9905 77.9806 17.9895 76.9055 17.99C76.0079 16.6514 75.1113 15.3123 74.2152 13.9727C73.4913 13.9712 72.7679 13.9717 72.044 13.9722C72.0435 15.3113 72.044 16.6504 72.0435 17.9895C71.1231 17.99 70.2027 17.99 69.2819 17.9895C69.2819 13.8048 69.2814 9.62016 69.2823 5.43548ZM72.044 7.92785C72.0435 9.12964 72.0435 10.3314 72.044 11.5332C72.9838 11.5332 73.9236 11.5337 74.8634 11.5327C75.3811 11.5308 75.9225 11.4187 76.3393 11.0951C76.6779 10.8375 76.8938 10.4353 76.9419 10.0141C76.9948 9.55029 76.9302 9.04813 76.6483 8.66338C76.3868 8.30192 75.9638 8.09281 75.5358 8.00208C75.1249 7.90941 74.7018 7.92979 74.2845 7.92785C73.5374 7.92785 72.7907 7.92737 72.044 7.92785Z" fill="#2F4F9B"/>
<path d="M6.2103 7.24616C7.59209 7.03268 9.0321 7.20346 10.3227 7.74249C11.7127 8.31792 12.93 9.3072 13.7689 10.557C14.7228 11.9674 15.1861 13.7 15.0663 15.3977C14.979 16.7241 14.5321 18.021 13.7975 19.1277C14.1915 17.8551 14.2502 16.4806 13.9586 15.1803C13.6539 13.783 12.948 12.4754 11.9451 11.4551C10.869 10.3562 9.45955 9.58618 7.95015 9.28634C6.32092 8.95593 4.58786 9.17572 3.09011 9.89718C1.84077 10.492 0.767069 11.4371 0 12.5875V12.5865C0.394936 11.3653 1.07273 10.2324 1.997 9.33874C3.13717 8.22379 4.63395 7.48341 6.2103 7.24616Z" fill="#2F4F9B"/>
<path d="M3.72325 14.4622C4.60822 13.5098 5.8823 12.9334 7.18209 12.8975C8.37224 12.8558 9.57015 13.2682 10.4871 14.027C11.1169 14.5433 11.6128 15.2191 11.9204 15.9726C11.1586 15.0187 10.0369 14.3604 8.82976 14.1721C7.61487 13.9703 6.33254 14.256 5.30882 14.9372C4.30013 15.6029 3.55441 16.6519 3.25602 17.8226C2.98723 18.8439 3.06535 19.9491 3.46319 20.9268C2.75726 20.0389 2.3662 18.9045 2.38755 17.7697C2.40259 16.5524 2.88874 15.3487 3.72325 14.4622Z" fill="#2F4F9B"/>
<path d="M7.5169 3.61072C9.2684 3.37249 11.0825 3.6374 12.6967 4.35595C14.0591 4.95854 15.2778 5.88427 16.2205 7.03851C17.4587 8.54693 18.2253 10.4386 18.3713 12.3862C18.5674 14.8315 17.7765 17.3374 16.2128 19.2282C15.3967 20.2228 14.3749 21.0476 13.2333 21.6405C14.9795 19.9681 16.0502 17.6174 16.1662 15.2026C16.2676 13.3187 15.7892 11.4105 14.8189 9.79336C14.0042 8.42321 12.8403 7.26315 11.4658 6.45532C9.86032 5.50437 7.97346 5.03569 6.1094 5.12884C4.72906 5.19192 3.36619 5.56599 2.14111 6.20352C3.60053 4.80232 5.5102 3.87514 7.5169 3.61072Z" fill="#8EBA2E"/>
<path d="M4.49298 10.9127C5.67778 10.3804 7.03338 10.2456 8.30212 10.5202C9.73631 10.821 11.0448 11.6613 11.9254 12.8311C12.8434 14.0348 13.2932 15.5854 13.1525 17.0939C12.8633 15.6704 12.0613 14.357 10.9153 13.4618C9.69507 12.4905 8.09641 12.0194 6.54432 12.1606C5.1698 12.276 3.84526 12.8772 2.84531 13.8262C1.75705 14.8465 1.06712 16.2739 0.938065 17.7595C0.689653 16.5039 0.839089 15.1711 1.37182 14.0062C1.98848 12.6399 3.12234 11.5187 4.49298 10.9127Z" fill="#8EBA2E"/>
<path d="M7.32469 14.7611C8.32174 14.5768 9.38574 14.7922 10.229 15.3555C10.4138 15.4729 10.5759 15.6214 10.7525 15.7499C10.7476 15.763 10.7374 15.7887 10.7326 15.8018L10.6962 15.7393C9.95243 15.3904 9.10433 15.2623 8.29311 15.405C7.39941 15.5544 6.56393 16.0221 5.96959 16.7062C5.34759 17.4097 4.99195 18.3408 4.98516 19.2796C4.96575 20.379 5.43346 21.4707 6.23449 22.2222C5.42085 21.8079 4.75615 21.1063 4.39275 20.2684C4.06332 19.5183 3.9755 18.6659 4.14289 17.8643C4.2962 17.1109 4.67804 16.4073 5.22144 15.8644C5.78764 15.2929 6.53288 14.9023 7.32469 14.7611Z" fill="#8EBA2E"/>
<path d="M92.3052 19.5164C92.4245 19.5159 92.5448 19.5159 92.6656 19.5164C92.6661 20.6575 92.6661 21.7986 92.6656 22.9403C92.5448 22.9403 92.4245 22.9403 92.3052 22.9403C92.3042 22.7787 92.3037 22.6171 92.3056 22.4556C92.1742 22.6298 92.0252 22.801 91.8239 22.8947C91.4381 23.0776 90.9525 22.9941 90.6357 22.7132C90.0627 22.2159 90.0748 21.1965 90.6682 20.7201C90.9923 20.4498 91.476 20.3819 91.8559 20.5726C92.0412 20.6609 92.1839 20.8147 92.3066 20.9763C92.3027 20.4896 92.3052 20.003 92.3052 19.5164ZM91.2363 20.8152C91.0408 20.8598 90.8617 20.9777 90.7521 21.1461C90.4877 21.5527 90.5362 22.1674 90.9214 22.4827C91.2091 22.7224 91.6565 22.7195 91.95 22.491C92.3697 22.1902 92.4371 21.5332 92.1237 21.133C91.9204 20.8695 91.5614 20.7332 91.2363 20.8152Z" fill="#5C5A5A"/>
<path d="M58.4761 19.922C58.7517 19.6498 59.1646 19.5765 59.5377 19.6216C59.8793 19.6459 60.1971 19.7997 60.4644 20.0078C60.3926 20.1034 60.3208 20.1985 60.2495 20.2936C60.0413 20.1287 59.7997 19.9967 59.5348 19.9579C59.2748 19.9137 58.9807 19.9356 58.7711 20.1112C58.5475 20.2902 58.5407 20.6827 58.775 20.8559C59.2393 21.1694 59.8744 21.0874 60.3101 21.4629C60.6735 21.771 60.6303 22.392 60.2868 22.6996C59.9967 22.967 59.5731 23.0169 59.1961 22.9733C58.7871 22.9344 58.4043 22.7418 58.105 22.4653C58.1812 22.3755 58.2578 22.2858 58.3345 22.1955C58.5717 22.4046 58.8488 22.5875 59.168 22.6356C59.4441 22.6763 59.7594 22.6822 59.9928 22.5036C60.1995 22.3561 60.2514 22.0471 60.1262 21.8316C60.0176 21.6691 59.823 21.6007 59.6454 21.5444C59.2684 21.4328 58.8541 21.3945 58.529 21.1548C58.1414 20.8753 58.1385 20.2427 58.4761 19.922Z" fill="#5C5A5A"/>
<path d="M67.7732 19.5867C67.91 19.5862 68.0473 19.5862 68.1856 19.5867C68.1851 19.7192 68.1851 19.8521 68.1856 19.9851C68.0478 19.9851 67.91 19.9851 67.7732 19.9846C67.7722 19.8521 67.7722 19.7192 67.7732 19.5867Z" fill="#5C5A5A"/>
<path d="M29.1459 19.6576C29.2691 19.6571 29.3928 19.6571 29.5165 19.6556C29.9207 20.25 30.3152 20.8516 30.7169 21.4474C31.1167 20.8511 31.5136 20.2529 31.9138 19.6571C32.038 19.6566 32.1627 19.6566 32.2879 19.6576C32.2884 20.7517 32.2879 21.8457 32.2879 22.9403C32.1642 22.9403 32.0409 22.9403 31.9182 22.9403C31.9167 22.0539 31.9187 21.1684 31.9167 20.2825C31.5145 20.8715 31.1152 21.4629 30.712 22.0515C30.3084 21.4644 29.9095 20.8739 29.5068 20.2864C29.5059 21.1709 29.5068 22.0553 29.5064 22.9403C29.3856 22.9403 29.2657 22.9403 29.1459 22.9403C29.1454 21.8457 29.1454 20.7517 29.1459 19.6576Z" fill="#5C5A5A"/>
<path d="M77.0188 22.9403C77.0178 21.8457 77.0178 20.7516 77.0188 19.6571C77.4322 19.6576 77.8455 19.6556 78.2594 19.6576C78.5966 19.659 78.9527 19.7502 79.2011 19.9909C79.5029 20.2917 79.5524 20.79 79.3753 21.1674C79.1972 21.5362 78.7902 21.7317 78.3982 21.77C78.0619 21.7943 77.7247 21.7759 77.389 21.7822C77.388 22.1679 77.3885 22.5541 77.3885 22.9403C77.2648 22.9403 77.1411 22.9403 77.0188 22.9403ZM77.389 19.9996C77.3885 20.4814 77.388 20.9632 77.389 21.4445C77.698 21.4411 78.0071 21.4518 78.3162 21.4391C78.6116 21.4222 78.9304 21.2795 79.0512 20.9933C79.1516 20.7415 79.1191 20.4169 78.9158 20.2242C78.7392 20.0622 78.4923 20.004 78.2584 20.0011C77.9683 19.9972 77.6786 20.0006 77.389 19.9996Z" fill="#5C5A5A"/>
<path d="M86.2447 19.657C86.367 19.6566 86.4902 19.6566 86.6145 19.657C86.6149 20.6371 86.6145 21.6172 86.6149 22.5977C87.2306 22.5987 87.8468 22.5967 88.4635 22.5982C88.4625 22.7117 88.4625 22.8257 88.463 22.9398C87.7236 22.9407 86.9837 22.9407 86.2443 22.9398C86.2443 21.8457 86.2438 20.7516 86.2447 19.657Z" fill="#5C5A5A"/>
<path d="M55.5299 19.7842C55.6497 19.7837 55.7701 19.7832 55.8909 19.7832C55.8918 20.0272 55.8904 20.2708 55.8914 20.5149C56.1475 20.5153 56.4037 20.5149 56.6604 20.5149C56.6599 20.6211 56.6599 20.7274 56.6604 20.8341C56.4042 20.8346 56.1475 20.8336 55.8914 20.8346C55.8914 21.3023 55.8904 21.7705 55.8914 22.2387C55.8904 22.3644 55.9122 22.5128 56.0301 22.5846C56.2198 22.7016 56.4571 22.6535 56.6521 22.5754C56.6502 22.6788 56.6502 22.7821 56.6502 22.8854C56.3911 23.0053 56.0738 23.0252 55.8171 22.8913C55.6187 22.7831 55.5309 22.5478 55.5314 22.3319C55.5275 21.8331 55.5309 21.3338 55.5299 20.8351C55.4168 20.8341 55.3038 20.8341 55.1922 20.8336C55.1912 20.7274 55.1912 20.6216 55.1917 20.5158C55.3043 20.5149 55.4164 20.5149 55.5294 20.5149C55.5299 20.2713 55.5294 20.0277 55.5299 19.7842Z" fill="#5C5A5A"/>
<path d="M82.5574 19.7842C82.6772 19.7837 82.797 19.7832 82.9178 19.7837C82.9188 20.0273 82.9178 20.2713 82.9188 20.5149C83.1745 20.5154 83.4307 20.5149 83.6873 20.5149C83.6869 20.6211 83.6869 20.7274 83.6878 20.8341C83.4312 20.8346 83.1745 20.8341 82.9188 20.8341C82.9183 21.3023 82.9178 21.77 82.9183 22.2377C82.9169 22.3634 82.9397 22.5109 83.0561 22.5837C83.2453 22.7011 83.4845 22.6545 83.6801 22.5754C83.6776 22.6788 83.6772 22.7821 83.6772 22.8859C83.4287 23.0014 83.1299 23.0213 82.8776 22.9088C82.6602 22.8103 82.5574 22.5628 82.5593 22.3353C82.5549 21.835 82.5588 21.3348 82.5578 20.8346C82.4448 20.8341 82.3317 20.8341 82.2202 20.8336C82.2192 20.7274 82.2187 20.6211 82.2202 20.5154C82.3313 20.5149 82.4443 20.5149 82.5574 20.5149C82.5574 20.2713 82.5574 20.0278 82.5574 19.7842Z" fill="#5C5A5A"/>
<path d="M88.8905 19.7837C89.0098 19.7832 89.1297 19.7837 89.2505 19.7842C89.2509 20.0278 89.2505 20.2713 89.2509 20.5149C89.5071 20.5158 89.7633 20.5144 90.0204 20.5154C90.0195 20.6216 90.0195 20.7274 90.02 20.8341C89.7633 20.8346 89.5071 20.8336 89.2509 20.8346C89.2582 21.3494 89.2349 21.8656 89.2626 22.3794C89.3261 22.7171 89.7691 22.6933 90.0117 22.5749C90.0102 22.6773 90.0102 22.7802 90.0117 22.883C89.7599 23.0043 89.4513 23.0228 89.1966 22.902C88.9865 22.7991 88.8905 22.556 88.8919 22.3333C88.8871 21.8341 88.8914 21.3343 88.89 20.8346C88.7764 20.8341 88.6644 20.8341 88.5523 20.8341C88.5513 20.7274 88.5518 20.6211 88.5528 20.5149C88.6644 20.5149 88.7764 20.5149 88.89 20.5149C88.8905 20.2708 88.889 20.0273 88.8905 19.7837Z" fill="#5C5A5A"/>
<path d="M63.9195 21.1441C64.0893 20.756 64.473 20.4508 64.9112 20.4712C64.9107 20.5998 64.9112 20.7288 64.9116 20.8579C64.653 20.8627 64.3847 20.9433 64.2072 21.1402C64.0068 21.3542 63.9248 21.6536 63.9229 21.9413C63.919 22.2741 63.9228 22.6069 63.9214 22.9403C63.8006 22.9403 63.6803 22.9403 63.5604 22.9403C63.5599 22.1319 63.5599 21.3236 63.5604 20.5153C63.6803 20.5148 63.8001 20.5148 63.9214 20.5153C63.9209 20.7249 63.9228 20.9345 63.9195 21.1441Z" fill="#5C5A5A"/>
<path d="M32.9584 20.6828C33.3917 20.4824 33.9084 20.4028 34.3635 20.576C34.6832 20.6964 34.8652 21.0355 34.8691 21.3659C34.8768 21.8904 34.87 22.4153 34.8725 22.9398C34.7565 22.9403 34.6405 22.9403 34.5256 22.9403C34.5246 22.8195 34.5251 22.6987 34.5275 22.5784C34.1738 23.0393 33.4431 23.1363 32.9895 22.772C32.6329 22.4906 32.6688 21.8637 33.0579 21.6279C33.4989 21.3611 34.052 21.427 34.5299 21.5449C34.5382 21.3009 34.4732 21.0161 34.2349 20.8977C33.8638 20.7153 33.4252 20.8147 33.0652 20.9773C33.0293 20.8788 32.9938 20.7808 32.9584 20.6828ZM33.5159 21.7463C33.3082 21.7919 33.1156 21.9632 33.1142 22.1878C33.088 22.4304 33.2932 22.6317 33.5174 22.6807C33.8565 22.7603 34.2694 22.6473 34.4547 22.3353C34.5518 22.1786 34.528 21.9879 34.5299 21.8128C34.201 21.7283 33.8516 21.6696 33.5159 21.7463Z" fill="#5C5A5A"/>
<path d="M35.7661 20.934C35.9078 20.7366 36.0927 20.5459 36.3391 20.4925C36.6496 20.4241 37.0101 20.4717 37.2469 20.6997C37.439 20.8821 37.5249 21.1519 37.5264 21.4119C37.5288 21.9214 37.5269 22.4308 37.5273 22.9403C37.4065 22.9403 37.2867 22.9403 37.1664 22.9403C37.1654 22.4633 37.1678 21.9869 37.1659 21.51C37.1678 21.2727 37.0805 21.0126 36.868 20.885C36.5706 20.7152 36.1465 20.7768 35.9311 21.051C35.8176 21.1917 35.7681 21.3746 35.769 21.5536C35.7671 22.0155 35.7695 22.4779 35.7681 22.9403C35.6478 22.9403 35.5274 22.9403 35.4076 22.9403C35.4071 22.132 35.4071 21.3236 35.4076 20.5153C35.5274 20.5149 35.6478 20.5149 35.7681 20.5153C35.7686 20.6551 35.7686 20.7943 35.7661 20.934Z" fill="#5C5A5A"/>
<path d="M38.0998 20.6832C38.4797 20.5032 38.9159 20.4309 39.3302 20.5197C39.549 20.5678 39.7586 20.692 39.8755 20.8885C39.9983 21.0869 40.0172 21.3285 40.0138 21.557C40.0124 22.018 40.0143 22.4794 40.0124 22.9408C39.8964 22.9403 39.7814 22.9403 39.6664 22.9403C39.6655 22.819 39.6655 22.6987 39.6679 22.5783C39.4947 22.7729 39.271 22.9408 39.0061 22.9757C38.6728 23.0281 38.2919 22.9597 38.0571 22.7001C37.766 22.3867 37.8499 21.8108 38.2317 21.6075C38.6703 21.3659 39.2031 21.4294 39.6703 21.5449C39.679 21.3013 39.6145 21.018 39.3782 20.8986C39.0066 20.7143 38.567 20.8152 38.206 20.9768C38.1701 20.8788 38.1347 20.7807 38.0998 20.6832ZM38.2992 22.0092C38.1924 22.2208 38.2769 22.5007 38.4884 22.6113C38.8314 22.7967 39.3122 22.7055 39.5548 22.3974C39.6907 22.2334 39.6732 22.0116 39.6708 21.8132C39.3627 21.7322 39.0396 21.6803 38.7218 21.7312C38.5525 21.7613 38.3773 21.8486 38.2992 22.0092Z" fill="#5C5A5A"/>
<path d="M40.6808 20.8526C41.0127 20.4674 41.6109 20.3524 42.0641 20.5819C42.2378 20.6639 42.3736 20.8031 42.4959 20.9482C42.4934 20.8036 42.4939 20.6595 42.4949 20.5154C42.6147 20.5149 42.7351 20.5149 42.8559 20.5159C42.8559 21.1219 42.8549 21.7283 42.8559 22.3343C42.8593 22.6065 42.8539 22.8928 42.7215 23.1383C42.5851 23.4119 42.3086 23.5929 42.0151 23.6569C41.5042 23.7709 40.9511 23.6584 40.5192 23.3644C40.5731 23.2702 40.6279 23.1766 40.6828 23.0834C40.9598 23.2746 41.2892 23.3993 41.6293 23.3906C41.9132 23.394 42.2198 23.2843 42.3751 23.034C42.5245 22.7986 42.4964 22.509 42.5012 22.2436C42.3435 22.4309 42.1582 22.6085 41.9243 22.6938C41.492 22.8389 40.9729 22.7142 40.6755 22.3625C40.3126 21.9467 40.3174 21.266 40.6808 20.8526ZM41.3596 20.8172C41.1791 20.8671 41.0141 20.9787 40.9122 21.1369C40.6832 21.4804 40.7502 21.9942 41.0796 22.2504C41.4799 22.5779 42.1543 22.4493 42.4066 21.9981C42.5614 21.7313 42.5386 21.3712 42.3469 21.1291C42.1233 20.8342 41.7104 20.7187 41.3596 20.8172Z" fill="#5C5A5A"/>
<path d="M43.7386 20.7123C44.1476 20.3688 44.8113 20.3785 45.1985 20.7516C45.4964 21.034 45.592 21.4639 45.5765 21.8608C44.9341 21.8627 44.2922 21.8603 43.6498 21.8622C43.6789 22.2407 43.9521 22.6045 44.3393 22.6662C44.6852 22.7419 45.0345 22.59 45.2737 22.3421C45.3484 22.4085 45.4227 22.4755 45.4974 22.5429C45.3052 22.7491 45.0641 22.9267 44.7798 22.9723C44.3795 23.0514 43.9346 22.9456 43.6459 22.6487C43.1258 22.1334 43.1709 21.1747 43.7386 20.7123ZM43.9991 20.9195C43.7895 21.0801 43.6843 21.3382 43.6498 21.5934C44.1704 21.5934 44.6905 21.5963 45.2111 21.592C45.1772 21.3649 45.1121 21.1262 44.9389 20.9646C44.6934 20.7211 44.267 20.7022 43.9991 20.9195Z" fill="#5C5A5A"/>
<path d="M46.3348 20.9205C46.5042 20.6565 46.7865 20.4479 47.1135 20.4634C47.4464 20.4421 47.7535 20.6492 47.9 20.9413C48.0398 20.7366 48.2329 20.5561 48.4798 20.4969C48.786 20.4236 49.1494 20.4639 49.3827 20.6934C49.5758 20.8778 49.6501 21.1524 49.652 21.4129C49.6539 21.9219 49.652 22.4308 49.6525 22.9398C49.5322 22.9403 49.4114 22.9403 49.292 22.9403C49.2896 22.4614 49.293 21.983 49.2905 21.5041C49.2896 21.2907 49.2323 21.0578 49.0591 20.9185C48.817 20.7303 48.4371 20.7531 48.2154 20.9636C48.0553 21.1145 47.9883 21.3406 47.9927 21.556C47.9917 22.0175 47.9927 22.4784 47.9922 22.9398C47.8728 22.9403 47.754 22.9403 47.6356 22.9398C47.6346 22.4609 47.6366 21.982 47.6351 21.5037C47.6366 21.2795 47.5682 21.0345 47.3775 20.8986C47.0975 20.7026 46.6686 20.7827 46.4818 21.0709C46.3135 21.2936 46.3334 21.5837 46.3363 21.8472C46.3358 22.2115 46.3368 22.5759 46.3358 22.9403C46.215 22.9403 46.0952 22.9403 45.9753 22.9398C45.9753 22.1315 45.9748 21.3236 45.9753 20.5153C46.0952 20.5149 46.2155 20.5149 46.3358 20.5153C46.3363 20.6502 46.3358 20.7851 46.3348 20.9205Z" fill="#5C5A5A"/>
<path d="M50.5813 20.6604C51.033 20.3368 51.7341 20.4149 52.0747 20.8651C52.2964 21.1441 52.3605 21.5128 52.3503 21.8607C51.7074 21.8631 51.0646 21.8593 50.4222 21.8631C50.4547 22.1979 50.6619 22.5278 50.9927 22.6341C51.3659 22.7685 51.7826 22.6239 52.0466 22.3415C52.1213 22.4085 52.196 22.4754 52.2712 22.5424C52.0839 22.7423 51.852 22.9179 51.5764 22.9674C51.163 23.0567 50.6982 22.9475 50.4047 22.6336C49.8783 22.0951 49.9569 21.0917 50.5813 20.6604ZM50.7846 20.9107C50.5672 21.0694 50.46 21.3333 50.4217 21.5919C50.9423 21.5953 51.4629 21.5944 51.9835 21.5924C51.9515 21.3586 51.8806 21.1131 51.6982 20.9515C51.4546 20.7235 51.0471 20.7065 50.7846 20.9107Z" fill="#5C5A5A"/>
<path d="M52.749 20.5149C52.8689 20.5149 52.9887 20.5149 53.109 20.5154C53.1095 20.6541 53.109 20.7929 53.1081 20.9326C53.2454 20.7419 53.422 20.5571 53.6578 20.4984C53.9906 20.4154 54.3875 20.4736 54.6262 20.7385C54.8038 20.9312 54.8722 21.2004 54.8683 21.4576C54.8683 21.952 54.8688 22.4464 54.8678 22.9403C54.7475 22.9403 54.6276 22.9403 54.5078 22.9403C54.5068 22.4633 54.5093 21.9864 54.5073 21.51C54.5097 21.2674 54.4166 21.001 54.1949 20.8763C53.8931 20.7152 53.471 20.7837 53.2628 21.0636C53.1546 21.2038 53.109 21.3819 53.11 21.557C53.1081 22.018 53.111 22.4794 53.109 22.9403C52.9882 22.9403 52.8684 22.9403 52.7485 22.9398C52.749 22.1315 52.7481 21.3232 52.749 20.5149Z" fill="#5C5A5A"/>
<path d="M61.289 20.7419C61.649 20.4149 62.2327 20.3678 62.6383 20.6381C63.0415 20.8962 63.1841 21.4056 63.1618 21.8607C62.5189 21.8636 61.8761 21.8588 61.2337 21.8632C61.2672 22.1965 61.4719 22.5254 61.8009 22.6331C62.1749 22.7685 62.5941 22.6254 62.8585 22.342C62.9333 22.4085 63.0075 22.475 63.0822 22.5429C62.8979 22.7404 62.6698 22.9131 62.3991 22.9655C61.9944 23.0548 61.5398 22.9577 61.2424 22.6598C60.7218 22.1582 60.7495 21.2193 61.289 20.7419ZM61.6276 20.8884C61.3914 21.0437 61.272 21.3212 61.2347 21.5929C61.7548 21.5949 62.2744 21.5939 62.794 21.5934C62.7669 21.3925 62.7149 21.1859 62.582 21.0277C62.3617 20.7453 61.9197 20.6847 61.6276 20.8884Z" fill="#5C5A5A"/>
<path d="M69.1683 20.6682C69.6763 20.3193 70.422 20.4275 70.8228 20.8928C70.7432 20.9777 70.6636 21.0621 70.5841 21.147C70.3992 20.9719 70.1862 20.7904 69.9179 20.7851C69.5361 20.7453 69.1649 21.0039 69.0422 21.362C68.8418 21.8554 69.1086 22.5118 69.6462 22.6409C70.0057 22.7457 70.3701 22.5705 70.6132 22.3095C70.6889 22.3804 70.7645 22.4517 70.8407 22.5235C70.6151 22.7724 70.3148 22.9815 69.9679 22.9922C69.4652 23.047 68.9495 22.7578 68.7365 22.2993C68.4585 21.7477 68.6443 21.0044 69.1683 20.6682Z" fill="#5C5A5A"/>
<path d="M71.4183 20.7278C71.7667 20.4241 72.3106 20.3756 72.7074 20.6104C73.1397 20.8574 73.3013 21.3891 73.2746 21.8612C72.6322 21.8632 71.9894 21.8593 71.3475 21.8632C71.38 22.2057 71.5973 22.5414 71.9384 22.6414C72.3081 22.7632 72.7123 22.6186 72.9719 22.342C73.0466 22.4085 73.1213 22.4755 73.196 22.5434C73.0044 22.7472 72.7661 22.9252 72.4838 22.9713C72.082 23.0519 71.6362 22.9475 71.3455 22.6501C70.8303 22.1407 70.8671 21.197 71.4183 20.7278ZM71.789 20.8593C71.5236 21.0054 71.3863 21.3028 71.347 21.5924C71.8676 21.5949 72.3882 21.5949 72.9088 21.5924C72.8797 21.41 72.8394 21.2232 72.7293 21.0714C72.5303 20.7735 72.0961 20.6793 71.789 20.8593Z" fill="#5C5A5A"/>
<path d="M73.9384 20.5843C74.3707 20.365 74.8918 20.4993 75.2877 20.7381C75.2329 20.8288 75.1785 20.9195 75.1247 21.0102C74.8515 20.8496 74.5235 20.7196 74.2043 20.8055C74.019 20.8511 73.869 21.0631 73.9617 21.249C74.0718 21.4212 74.2892 21.4658 74.4702 21.5289C74.7584 21.6225 75.099 21.6963 75.2693 21.9743C75.4478 22.3023 75.2727 22.7477 74.934 22.8908C74.4493 23.1038 73.8778 22.9374 73.4707 22.6327C73.5304 22.5463 73.5915 22.4609 73.6531 22.3755C73.9656 22.6007 74.3814 22.7714 74.7637 22.6317C74.9893 22.5604 75.0888 22.2246 74.8884 22.0723C74.5468 21.8224 74.0621 21.8598 73.7468 21.5624C73.4557 21.2839 73.5881 20.7507 73.9384 20.5843Z" fill="#5C5A5A"/>
<path d="M64.9966 20.5154C65.1286 20.5149 65.261 20.5149 65.3944 20.5154C65.6661 21.1859 65.9383 21.8564 66.2105 22.5269C66.4861 21.8569 66.7573 21.1854 67.0324 20.5149C67.161 20.5149 67.2905 20.5149 67.4201 20.5154C67.0688 21.3305 66.7175 22.1451 66.3648 22.9592C66.258 22.9592 66.1518 22.9587 66.046 22.9587C65.6967 22.1441 65.3454 21.3305 64.9966 20.5154Z" fill="#5C5A5A"/>
<path d="M67.7966 22.9408C67.7957 22.132 67.7957 21.3237 67.7966 20.5149C67.916 20.5149 68.0368 20.5149 68.1571 20.5154C68.1576 21.3237 68.1571 22.1315 68.1576 22.9398C68.0368 22.9403 67.916 22.9403 67.7966 22.9408Z" fill="#5C5A5A"/>
<path d="M79.6636 20.5154C79.7955 20.5149 79.9285 20.5149 80.0614 20.5154C80.3341 21.1859 80.6053 21.8569 80.878 22.5274C81.1526 21.8569 81.4248 21.1859 81.6994 20.5154C81.828 20.5149 81.957 20.5149 82.0875 20.5154C81.7363 21.3305 81.3845 22.1451 81.0323 22.9597C80.9246 22.9592 80.8183 22.9587 80.7121 22.9578C80.3651 22.1427 80.0119 21.33 79.6636 20.5154Z" fill="#5C5A5A"/>
<path d="M84.0491 22.4488C84.1922 22.4483 84.3358 22.4483 84.4799 22.4488C84.4799 22.6123 84.4799 22.7763 84.4799 22.9398C84.3358 22.9403 84.1922 22.9403 84.0491 22.9403C84.0481 22.7763 84.0481 22.6123 84.0491 22.4488Z" fill="#5C5A5A"/>
<path d="M93.2014 22.4488C93.3445 22.4483 93.4877 22.4478 93.6323 22.4483C93.6323 22.6123 93.6323 22.7763 93.6323 22.9403C93.4877 22.9403 93.3445 22.9403 93.2014 22.9403C93.2004 22.7763 93.2004 22.6123 93.2014 22.4488Z" fill="#5C5A5A"/>
</svg>
